<svg version="1.1" id="artwork" xmlns="http://www.w3.org/2000/svg" xmlns:xlink="http://www.w3.org/1999/xlink" x="0" y="0" viewBox="0 0 439 389" xml:space="preserve"><style>.st0{fill:#fbfbfb}.st1{clip-path:url(#SVGID_2_)}.st2{fill:#be4341}.st3{fill:#ffe02b}</style><path class="st0" d="M190 5C85.1 5 0 69.9 0 150c0 48.5 31.2 91.4 79.1 117.7L45 325l109.7-32.5c11.4 1.6 23.2 2.5 35.3 2.5 104.9 0 190-64.9 190-145S294.9 5 190 5z"/><path class="st0" d="M190 7C85.1 7 0 71.9 0 152c0 48.5 31.2 91.4 79.1 117.7L45 325l109.7-30.5c11.4 1.6 23.2 2.5 35.3 2.5 104.9 0 190-64.9 190-145S294.9 7 190 7z"/><defs><path id="SVGID_1_" d="M101.5 263.8l-14.7-8.1C42.5 231.3 16 192.6 16 152 16 80.9 94.1 23 190 23s174 57.9 174 129-78.1 129-174 129c-11 0-22.1-.8-33-2.3l-3.3-.5L80 298.7l21.5-34.9z"/></defs><use xlink:href="#SVGID_1_" overflow="visible" fill="#ec5552"/><clipPath id="SVGID_2_"><use xlink:href="#SVGID_1_" overflow="visible"/></clipPath><g class="st1"><path class="st2" d="M247 69.8l-46.9 86.8 148.4 148.5 66.5-67.3z"/><path class="st2" d="M311.1 84.8l-52.3 12.8 28.9 29-23.3 29.4 107.9 107.9 58.3-59.5zm-127.1.1l-16 4.6-35.2 53 204.4 204.3 51.7-57z"/><path class="st2" d="M115.7 91.8S97.3 84.3 81 90.5c-11 4.4-16.5 15-16.5 15l19.9 19.9c-7.4 1.2-13 3.7-14.3 7.3-2.7 7.7-5.9 23.3-5.9 23.3l220 220 59.4-56.2-227.9-228z"/></g><g class="st1"><path class="st2" d="M92.7 178.9s-17.8-8.9-23.9 4.9c-.7 2.9-.1 8.6-.1 8.6l18.1 18.1c-1.8.9-7.6.2-9.3-1.5l-7.1-7.1-2.2 8.3L218 359.9l30.4-25.2L92.7 178.9zm187.4.6l-25-2.4L253 213l47.8 47.8 31.3-29.2zm-113-.1l-24.9-2.3-2 35.9 116.4 116.4 31.1-29.3z"/><path class="st2" d="M315.3 176l-30.5 6.4 14.4 14.3-2.6 16.3 45.5 45.5 26-29.6zm-111.2 3.4l-24.9-2.3-2 35.9 110.6 110.6 31.1-29.3z"/><path class="st2" d="M244.6 181s-17.8-11.3-28.2 4c-6.8 12.6.8 23.6.8 23.6l102.3 102.3 26.6-28.3L244.6 181zm6.7 114.6L131.7 176l-4.2 21.3-21.3-21.3-4.5 8.1 2.3 25.4 118.2 118.1z"/></g><path class="st3" d="M281.2 180.5l35.5-71.2h-42.3V93.7h63.8l.9 8.7-38.9 78.1h-19z"/><path d="M260 75.3l-41.4 105.2h-15.8l41.3-105.2H260z" fill="#fff"/><path class="st3" d="M37.3 118.8c.1-18.4 17.5-26.3 33.5-26.3 17.4 0 36.2 7.1 36.2 27.7 0 22.1-16.6 26.3-34.8 26.3-7.2 0-18.9 1.9-18.9 11.3v7.4h53.9v15.3H36.9v-22.8c0-20 18.1-25.9 35.2-25.9 6.6 0 18.6-1.1 18.6-11.2 0-9.4-8.6-13.9-19.7-13.9-8.6 0-17.4 4.3-17.5 12.2H37.3zm145.9-25v54.3h10.2V164h-10.2v16.5h-16.1V164h-46.4l-1.5-16.6 39.1-53.6h24.9zm-16.1 54.3v-40.2l-29.4 40.2h29.4z"/></svg>