<svg version="1.1" id="OBJECTS" xmlns="http://www.w3.org/2000/svg" x="0" y="0" viewBox="0 0 141 106" xml:space="preserve"><style>.st0{fill:#fff}</style><path class="st0" d="M87.4 21.5c-1.4.2-1.8 2-.3 2.5 7.5 2.4 3 11.6 3.7 16.9.1.8.9 1.2 1.6.6 4.4-4.2 3.7-21.1-5-20zm-25.9 8.4c-1.5-2.7-4.1-4.4-7-5.1-1.2-.3-1.7 1.5-.5 1.9 2.3.8 4.1 2.7 5.1 4.9.9 1.8.5 4.1 1.6 5.8.2.4.7.4 1 .1 2.2-1.6.9-5.6-.2-7.6zM34.1 47.4c-1.3-2.5-3.6-4.9-6.6-4.1-1.4.3-1.1 2.4.3 2.5 5.1 0 4.6 9.1 7.2 12 .2.2.8.2.9-.1 1.3-3.1-.5-7.6-1.8-10.3z"/><path d="M44.8 98.2c-3.9 1.7-11.3 4.5-15.1 1.2-2.6-2.3-2.5-8.1-2.3-11.2.6-10 6.3-19.8 12.3-27.6 7.2-9.3 17.9-16.3 29.6-16.7 8.9-.3 17.6 3.3 24.6 8.8 6.9 5.6 12.2 13 16.2 20.9 2 3.9 3.7 8 3.8 12.3.1 4.3-1.9 8.9-5.7 11-3.1 1.7-6.8 1.5-10.1.4s-6.3-2.9-9.4-4.6c-5.6-3-11.9-5.4-18.3-5-9.3.6-17.1 6.7-25.6 10.5zm-8.7-48.8c1.1 9.4-6 14.5-13.3 7.4-4.5-4.3-7.9-12-8.6-18.2-.3-3.1.1-6.6 2.4-8.7 2.2-2 5.8-2 8.5-.7s4.7 3.8 6.2 6.4c2.5 4.2 4.2 8.9 4.8 13.8zm26.8-25.2c1.5 6.3-.3 16-8.8 15.3-10.2-.9-11.4-18.5-10.3-25.7.4-2.7 1.5-5.8 4-6.8 1.8-.7 3.8-.2 5.4.9C54.8 9 56 10.6 57 12.1c2.6 3.7 4.9 7.7 5.9 12.1zM98.4 20c.1-4.2-.8-8.6-3.6-11.7-2.7-3.2-7.6-4.7-11.3-2.7-3.8 2-5.3 6.8-5.9 11-.9 5.8-2.3 16.5 2 21.4 2.7 3.1 6.7 1.5 9.7-.3 6-3.4 9-11 9.1-17.7zm25.1 38.3c-6 5.7-18.3 3.9-17.2-5.9.7-6.6 5.2-13.4 9.3-18.5 2.5-3.1 6.1-6.1 10-5.2 3.1.7 5.2 3.7 5.7 6.8.5 3.1-.2 6.3-1 9.3-1.4 4.9-3.1 10-6.8 13.5z" fill="#faad3e"/><path class="st0" d="M79.5 50.4c0-.2-.1-.3-.1-.5-.2-1-1.2-1.7-2.1-1.8-1.1-.2-2.2.5-2.6 1.5-.4.9-.2 2 .5 2.8.8.8 2 .9 3.1.4-.7.3.2-.1.4-.1.7-.4 1-1.4.8-2.3zm6.5 2.7c-1.4-.7-3 1.1-1.7 2.2 4.7 4.4 9.7 7.8 13.5 13.2 4.5 6.5 6.2 14.5 4.5 22.2-.7 3.1 4.2 4.3 4.7 1.3 2.4-16.2-5.8-31.7-21-38.9zm38.7-19.6c-1.3-.7-2.7 1-1.6 2.1 2.5 2.4 1.1 7.9.3 10.6-.7 2.5-2.1 4.6-2.2 7.2 0 .8.9 1.4 1.6.9 3.1-2.2 4.1-7.3 4.6-10.9.4-3.4.9-8-2.7-9.9z"/></svg>