<svg xmlns="http://www.w3.org/2000/svg" version="1.1" id="Capa_1" x="0" y="0" width="512" height="512" viewBox="0 0 81.751 81.751" xml:space="preserve"><path d="M66.31 21.076h-8.659V5.522C57.651 2.483 55.167 0 52.13 0H15.683c-3.039 0-5.521 2.483-5.521 5.522v70.707c0 3.038 2.483 5.522 5.521 5.522H52.13c3.036 0 5.521-2.484 5.521-5.522V58.475h8.659c2.912 0 5.28-2.352 5.28-5.244V26.32c0-2.889-2.368-5.244-5.28-5.244zM28.075 3.98h11.661a.67.67 0 0 1 .67.668.671.671 0 0 1-.67.667H28.075a.668.668 0 0 1 0-1.335zm5.83 75.014a2.764 2.764 0 1 1 .005-5.527 2.764 2.764 0 0 1-.005 5.527zm19.902-7.459H14.001V8.757h39.806v12.319H31.052c-2.909 0-5.276 2.355-5.276 5.247v26.911c0 2.891 2.367 5.244 5.276 5.244h3.189v9.015l9.016-9.015h10.55v13.057zm15.447-18.302c0 1.604-1.318 2.908-2.944 2.908H42.292l-5.713 5.712v-5.712h-5.527c-1.621 0-2.94-1.305-2.94-2.908V26.322c0-1.605 1.317-2.911 2.94-2.911H66.31c1.621 0 2.944 1.306 2.944 2.911v26.911zM63.413 31.75c0 .799-.606 1.444-1.353 1.444H35.374c-.745 0-1.353-.645-1.353-1.444 0-.794.608-1.443 1.353-1.443H62.06c.746 0 1.353.649 1.353 1.443zm0 7.83c0 .8-.606 1.447-1.353 1.447H35.374c-.745 0-1.353-.647-1.353-1.447 0-.793.608-1.44 1.353-1.44H62.06c.746-.001 1.353.646 1.353 1.44zm0 7.83c0 .798-.606 1.446-1.353 1.446H35.374c-.745 0-1.353-.648-1.353-1.446 0-.796.608-1.441 1.353-1.441H62.06c.746-.001 1.353.647 1.353 1.441z" fill="#FFF"/></svg>